<?xml version="1.0" encoding="UTF-8" standalone="no"?>
<svg
   xmlns:dc="http://purl.org/dc/elements/1.1/"
   xmlns:cc="http://creativecommons.org/ns#"
   xmlns:rdf="http://www.w3.org/1999/02/22-rdf-syntax-ns#"
   xmlns:svg="http://www.w3.org/2000/svg"
   xmlns="http://www.w3.org/2000/svg"
   xmlns:sodipodi="http://sodipodi.sourceforge.net/DTD/sodipodi-0.dtd"
   xmlns:inkscape="http://www.inkscape.org/namespaces/inkscape"
   viewBox="0 0 132.5 30.69"
   version="1.1"
   id="svg26"
   sodipodi:docname="logo_color.svg"
   inkscape:version="1.0.1 (3bc2e813f5, 2020-09-07)">
  <metadata
     id="metadata30">
    <rdf:RDF>
      <cc:Work
         rdf:about="">
        <dc:format>image/svg+xml</dc:format>
        <dc:type
           rdf:resource="http://purl.org/dc/dcmitype/StillImage" />
        <dc:title>itaps logo modre</dc:title>
      </cc:Work>
    </rdf:RDF>
  </metadata>
  <sodipodi:namedview
     pagecolor="#ffffff"
     bordercolor="#666666"
     borderopacity="1"
     objecttolerance="10"
     gridtolerance="10"
     guidetolerance="10"
     inkscape:pageopacity="0"
     inkscape:pageshadow="2"
     inkscape:window-width="1920"
     inkscape:window-height="1147"
     id="namedview28"
     showgrid="false"
     inkscape:zoom="4.4037736"
     inkscape:cx="27.81389"
     inkscape:cy="1.2080129"
     inkscape:window-x="-8"
     inkscape:window-y="-8"
     inkscape:window-maximized="1"
     inkscape:current-layer="Layer_2" />
  <defs
     id="defs4">
    <style
       id="style2">.cls-1{fill:#1772bd;}</style>
  </defs>
  <title
     id="title6">itaps logo modre</title>
  <g
     id="Layer_2"
     data-name="Layer 2">
    <g
       id="Layer_1-2"
       data-name="Layer 1">
      <g
         id="_Group_"
         data-name="&lt;Group&gt;">
        <g
           id="_Group_2"
           data-name="&lt;Group&gt;">
          <polygon
             id="_Path_"
             data-name="&lt;Path&gt;"
             class="cls-1"
             points="19.15 29.92 0 18.03 0 11.83 19.15 23.73 19.15 29.92" />
          <polygon
             id="_Path_2"
             data-name="&lt;Path&gt;"
             class="cls-1"
             points="5.05 8.76 10.03 11.86 19.15 6.2 19.15 0 5.05 8.76" />
        </g>
        <g
           id="_Group_3"
           data-name="&lt;Group&gt;">
          <polygon
             id="_Path_3"
             data-name="&lt;Path&gt;"
             class="cls-1"
             points="113.34 29.92 132.5 18.03 132.5 11.83 113.34 23.73 113.34 29.92" />
          <polygon
             id="_Path_4"
             data-name="&lt;Path&gt;"
             class="cls-1"
             points="127.45 8.76 122.46 11.86 113.34 6.2 113.34 0 127.45 8.76" />
        </g>
      </g>
      <g
         id="_Group_4"
         data-name="&lt;Group&gt;">
        <path
           id="_Compound_Path_"
           data-name="&lt;Compound Path&gt;"
           class="cls-1"
           d="M55.8,5.67a7.07,7.07,0,0,1,5.81,2.71V5.93h3.52V22.72H61.61V20.21A7.22,7.22,0,0,1,55.74,23c-4.34,0-7.85-3.57-7.85-8.74S51.38,5.67,55.8,5.67Zm.71,3c-2.6,0-5.08,1.94-5.08,5.57S53.94,20,56.51,20s5.08-2,5.08-5.67S59.14,8.68,56.51,8.68Z" />
        <path
           id="_Compound_Path_2"
           data-name="&lt;Compound Path&gt;"
           class="cls-1"
           d="M80.5,5.67c4.43,0,7.88,3.42,7.88,8.58S84.9,23,80.5,23a7.5,7.5,0,0,1-5.84-2.72V30.69H71.18V6h3.48V8.44A7.17,7.17,0,0,1,80.5,5.67Zm-.77,3c-2.59,0-5.07,2-5.07,5.63S77.17,20,79.73,20s5.11-2.1,5.11-5.73S82.36,8.68,79.73,8.68Z" />
        <path
           id="_Path_5"
           data-name="&lt;Path&gt;"
           class="cls-1"
           d="M99.45,23c-4,0-6.85-2.36-7-5.43h3.6c.12,1.36,1.42,2.51,3.34,2.51s3.07-.86,3.07-2c0-3.28-9.74-1.39-9.74-7.55,0-2.69,2.51-4.84,6.46-4.84s6.29,2,6.49,5.4h-3.48c-.12-1.48-1.24-2.48-3.13-2.48s-2.83.76-2.83,1.89c0,3.36,9.47,1.5,9.65,7.55C105.85,20.86,103.4,23,99.45,23Z" />
        <rect
           id="_Path_6"
           data-name="&lt;Path&gt;"
           class="cls-1"
           x="26.65"
           y="8.68"
           width="3.48"
           height="14.02" />
        <rect
           id="_Path_7"
           data-name="&lt;Path&gt;"
           class="cls-1"
           x="26.65"
           y="4.72"
           width="3.48"
           height="2.98" />
        <g
           id="_Group_5"
           data-name="&lt;Group&gt;">
          <rect
             id="_Path_8"
             data-name="&lt;Path&gt;"
             class="cls-1"
             x="36.92"
             y="4.72"
             width="3.48"
             height="2.98" />
          <path
             id="_Path_9"
             data-name="&lt;Path&gt;"
             class="cls-1"
             d="M44.32,8.76V5.93H34.76V8.76h2v9.3c0,3.39,1.86,4.66,4.84,4.66h2.74V19.83H42.2c-1.48,0-2-.53-2-1.77V8.76Z" />
        </g>
      </g>
    </g>
    <path
       style="fill:#1772bd;stroke-width:0.0227078"
       d="M 7.626723,10.309308 C 6.3064861,9.4882682 5.2261736,8.7909621 5.2260285,8.7597389 5.2258256,8.7160757 16.443446,1.7090024 18.641465,0.37980314 L 19.07455,0.11790506 19.07305,3.1615083 19.07155,6.2051117 15.587663,8.3623525 C 13.671538,9.5488349 11.636546,10.808159 11.065471,11.16085 l -1.038317,0.641257 z"
       id="path855" />
    <path
       style="fill:#000000;stroke-width:0.0454156"
       d="M 26.792039,15.627464 V 8.7015861 h 1.589546 1.589546 v 6.9258779 6.925879 h -1.589546 -1.589546 z"
       id="path863" />
    <path
       style="fill:#000000;stroke-width:0.0454156"
       d="M 26.792039,6.2037284 V 4.8412605 h 1.589546 1.589546 v 1.3624679 1.3624678 h -1.589546 -1.589546 z"
       id="path865" />
    <path
       style="fill:#000000;stroke-width:0.0454156"
       d="M 39.421958,22.318448 C 38.634047,22.082537 37.783426,21.32168 37.27282,20.396102 36.958821,19.826914 36.884755,18.809164 36.822502,14.208227 L 36.747995,8.7015861 H 35.857421 34.966846 V 7.3391183 5.9766504 h 1.021851 c 0.938589,0 1.021851,-0.046257 1.021851,-0.5676949 0,-0.5509325 0.04647,-0.567695 1.573752,-0.567695 1.459154,0 1.579037,0.037205 1.646316,0.5109255 0.06809,0.4794471 0.194978,0.5149677 2.059495,0.5765357 l 1.986932,0.06561 v 1.3536271 1.353627 H 42.233342 40.18964 v 5.1875992 c 0,6.168831 -0.09506,5.939222 2.458968,5.939222 h 1.628435 v 1.362468 1.362468 l -2.100471,-0.01952 c -1.155259,-0.01073 -2.394836,-0.107654 -2.754614,-0.215376 z"
       id="path867" />
    <path
       style="fill:#000000;stroke-width:0.0454156"
       d="M 54.577484,22.76791 C 49.251054,22.042966 46.368857,15.353499 49.042761,9.9220292 49.846264,8.289882 50.897209,7.2846013 52.668567,6.4537669 53.717436,5.9618072 54.250379,5.8634821 55.85802,5.8653296 c 2.237129,0.00257 3.451658,0.4464566 4.966742,1.8152437 l 0.937286,0.8467816 V 7.2520026 5.9766504 h 1.589545 1.589546 v 8.2883466 8.288346 h -1.589546 -1.589545 v -1.13539 c 0,-1.247844 -0.1652,-1.379741 -0.816348,-0.65178 -1.385022,1.548404 -3.89717,2.338054 -6.368216,2.001737 z m 4.608875,-3.52798 c 1.593684,-0.985298 2.458136,-2.743931 2.432283,-4.948211 -0.02967,-2.529944 -0.945707,-4.174116 -2.879682,-5.1686859 -1.047406,-0.5386415 -3.141973,-0.603113 -4.270805,-0.1314568 -1.70931,0.7141952 -2.892635,2.5068257 -3.08751,4.6772987 -0.426972,4.755509 4.006639,7.919843 7.805714,5.571055 z"
       id="path869" />
    <path
       style="fill:#000000;stroke-width:0.0454156"
       d="M 71.299323,18.3524 V 6.2037284 h 1.589545 1.589546 v 1.1353899 c 0,0.6244644 0.07664,1.1325514 0.170309,1.1290821 0.09367,-0.00347 0.476864,-0.3202031 0.851542,-0.7038532 2.913359,-2.9831172 8.513213,-2.4691169 11.045029,1.013803 3.259609,4.4841158 1.729929,11.3009208 -3.013601,13.4296898 -2.60047,1.167022 -6.274513,0.589781 -8.051503,-1.264997 -0.347923,-0.363154 -0.715655,-0.66028 -0.817182,-0.66028 -0.101526,0 -0.184594,2.299165 -0.184594,5.109254 v 5.109255 h -1.589546 -1.589545 z m 10.078624,1.423816 c 3.538276,-1.057211 4.754563,-6.788376 2.034943,-9.58868 -1.066996,-1.0986507 -2.119073,-1.5313655 -3.723272,-1.5313655 -3.025225,0 -5.055293,2.2571615 -5.04452,5.6088265 0.0082,2.549436 0.947129,4.264249 2.855588,5.215275 1.273327,0.634525 2.44483,0.723944 3.877261,0.295944 z"
       id="path871" />
    <path
       style="fill:#000000;stroke-width:0.0454156"
       d="m 98.046972,22.756348 c -2.244381,-0.319169 -4.113526,-1.544427 -4.930472,-3.232012 -0.259516,-0.536089 -0.471847,-1.197907 -0.471847,-1.470708 0,-0.464647 0.104774,-0.496001 1.657467,-0.496001 h 1.657468 l 0.282999,0.782621 c 0.415524,1.149111 1.529074,1.753502 3.215845,1.745435 2.301528,-0.01101 3.604508,-1.271013 2.841048,-2.747368 -0.36325,-0.702457 -1.12885,-1.06323 -3.864339,-1.820996 -4.142964,-1.147656 -5.707209,-2.630363 -5.519068,-5.231381 0.123006,-1.7005472 0.921868,-2.7932193 2.696811,-3.6886591 2.401339,-1.2114509 6.093496,-0.9848793 7.931516,0.4867229 0.88315,0.7070915 1.68894,2.0258626 1.92491,3.1503602 l 0.15487,0.738004 h -1.67551 -1.67551 l -0.29502,-0.815872 C 101.4759,8.7675702 99.262109,8.0752726 97.576305,8.7799498 c -0.970012,0.4054716 -1.374097,0.9307745 -1.374097,1.7862982 0,0.981919 0.858385,1.648549 2.859667,2.220846 5.046405,1.443093 6.745685,2.802683 6.752035,5.402291 0.005,2.023024 -2.17487,4.159759 -4.57623,4.485781 -0.54225,0.07362 -1.19029,0.163486 -1.440071,0.199703 -0.249786,0.03622 -1.037572,-0.01712 -1.750637,-0.118521 z"
       id="path873" />
  </g>
</svg>
