<svg width="351" height="304" viewBox="0 0 351 304" fill="none" xmlns="http://www.w3.org/2000/svg">
<path d="M177.5 151.5L327.5 1.5V104L280 151.5L327.5 199V301.5L177.5 151.5Z" fill="#C7EAFF" stroke="#C7EAFF"/>
<path d="M353 152L203 2V104.5L250.5 152L203 199.5V302L353 152Z" fill="#CF8D41" stroke="#CF8D41"/>
<path d="M52 151.5L202 1.5V104L154.5 151.5L202 199V301.5L52 151.5Z" fill="#C7EAFF" stroke="#C7EAFF"/>
<path d="M66.1875 146.5C66.1875 147.333 65.625 147.75 64.5 147.75L50.4375 148.25C49.8125 148.208 49.3542 147.812 49.0625 147.062L33.375 107.312L29 146.25C28.875 147.25 28.3542 147.771 27.4375 147.812L14.375 148.25C13.4583 148.167 13 147.771 13 147.062L23.8125 53C23.8958 52.25 24.0833 51.75 24.375 51.5C24.6667 51.2083 26.875 50.8958 31 50.5625C35.125 50.1875 40.625 50 47.5 50C54.375 50 59.6667 51.8333 63.375 55.5C67.125 59.125 69 63.8125 69 69.5625C69 75.3125 68.3125 80.3958 66.9375 84.8125C65.5625 89.1875 63.2917 93.125 60.125 96.625C56.9583 100.125 53 102.729 48.25 104.438L66 145.75C66.125 146 66.1875 146.25 66.1875 146.5ZM38.1875 64.5625L34.6875 95.625C42.3958 95.1667 47.7083 91.6667 50.625 85.125C52.2083 81.5417 53 77.9167 53 74.25C53 70.5417 52.2292 67.9583 50.6875 66.5C49.1875 65 47 64.25 44.125 64.25C41.25 64.25 39.2708 64.3542 38.1875 64.5625ZM104.062 52.125L93.375 146.25C93.25 147.25 92.7083 147.771 91.75 147.812L78.875 148.25C77.9583 148.25 77.5 147.854 77.5 147.062L88.3125 52.5C88.4792 51.625 89.0208 51.1458 89.9375 51.0625L102.438 50.625C103.521 50.6667 104.062 51.1667 104.062 52.125ZM172 51.875L161.25 146C161.083 146.958 160.542 147.479 159.625 147.562L147.25 148.25C146.542 148.25 146.125 147.854 146 147.062L132.875 80.3125L128.25 146.25C128.208 147.25 127.667 147.771 126.625 147.812L113.75 148.25C112.833 148.25 112.375 147.854 112.375 147.062L123.188 52.5C123.354 51.625 123.896 51.1458 124.812 51.0625L137.5 50.375C138.083 50.375 138.458 50.5 138.625 50.75C138.833 50.9583 139 51.3333 139.125 51.875L151.812 114.938L156.188 52.5C156.229 51.5833 156.792 51.1042 157.875 51.0625L170.312 50.375C171.438 50.375 172 50.875 172 51.875ZM220.125 105.25L200.688 106L197.75 131.625L221.688 130.812C222.771 130.854 223.312 131.396 223.312 132.438L221.688 145.375C221.604 146.25 221.062 146.792 220.062 147L181.625 148.25C180.708 148.25 180.25 147.854 180.25 147.062L191.062 52.5C191.229 51.625 191.771 51.1458 192.688 51.0625L226.938 49.875C227.979 50 228.5 50.5625 228.5 51.5625L226.938 64.5C226.812 65.5417 226.271 66.1042 225.312 66.1875L205.188 66.75L202.5 90L221.75 89.3125C222.833 89.3542 223.375 89.8958 223.375 90.9375L221.75 103.688C221.583 104.646 221.042 105.167 220.125 105.25Z" fill="black"/>
<path d="M24.8212 187.938L14.8212 188.281L12.5712 208C12.4879 208.479 12.2171 208.74 11.7587 208.781L5.32124 209.125C4.86291 209.125 4.63374 208.927 4.63374 208.531L10.0712 161.25C10.1546 160.813 10.4254 160.573 10.8837 160.531L28.0087 159.813C28.5296 159.875 28.79 160.156 28.79 160.656L28.0087 167.125C27.9462 167.667 27.6754 167.948 27.1962 167.969L17.1337 168.313L15.7587 180.313L25.6337 179.969C26.1754 179.99 26.4462 180.26 26.4462 180.781L25.6337 187.156C25.5504 187.635 25.2796 187.896 24.8212 187.938ZM69.28 208.25C69.28 208.667 68.9987 208.875 68.4362 208.875L61.405 209.125C61.0925 209.104 60.8633 208.906 60.7175 208.531L52.8737 188.656L50.6862 208.125C50.6237 208.625 50.3633 208.885 49.905 208.906L43.3737 209.125C42.9154 209.083 42.6862 208.885 42.6862 208.531L48.0925 161.5C48.1342 161.125 48.2279 160.875 48.3737 160.75C48.5196 160.604 49.6237 160.448 51.6862 160.281C53.7487 160.094 56.4987 160 59.9362 160C63.3737 160 66.0196 160.917 67.8737 162.75C69.7487 164.563 70.6862 166.906 70.6862 169.781C70.6862 172.656 70.3425 175.198 69.655 177.406C68.9675 179.594 67.8321 181.563 66.2487 183.313C64.6654 185.063 62.6862 186.365 60.3112 187.219L69.1862 207.875C69.2487 208 69.28 208.125 69.28 208.25ZM55.28 167.281L53.53 182.813C57.3842 182.583 60.0404 180.833 61.4987 177.563C62.2904 175.771 62.6862 173.958 62.6862 172.125C62.6862 170.271 62.3008 168.979 61.53 168.25C60.78 167.5 59.6862 167.125 58.2487 167.125C56.8112 167.125 55.8217 167.177 55.28 167.281ZM105.114 187.625L95.395 188L93.9263 200.813L105.895 200.406C106.437 200.427 106.708 200.698 106.708 201.219L105.895 207.688C105.853 208.125 105.583 208.396 105.083 208.5L85.8637 209.125C85.4054 209.125 85.1762 208.927 85.1762 208.531L90.5825 161.25C90.6658 160.813 90.9367 160.573 91.395 160.531L108.52 159.938C109.041 160 109.301 160.281 109.301 160.781L108.52 167.25C108.458 167.771 108.187 168.052 107.708 168.094L97.645 168.375L96.3013 180L105.926 179.656C106.468 179.677 106.739 179.948 106.739 180.469L105.926 186.844C105.843 187.323 105.572 187.583 105.114 187.625ZM136.948 161.063L132.479 200.781L144.448 200.313C144.989 200.333 145.26 200.604 145.26 201.125L144.448 207.594C144.385 208.135 144.114 208.417 143.635 208.438L124.385 209.125C123.948 209.125 123.729 208.927 123.729 208.531L129.073 161.25C129.114 161 129.177 160.823 129.26 160.719C129.364 160.615 129.562 160.552 129.854 160.531L136.135 160.313C136.677 160.333 136.948 160.583 136.948 161.063ZM181.281 161.031L184.938 208.094C184.938 208.573 184.667 208.833 184.125 208.875L177.594 209.125C177.156 209.125 176.938 208.927 176.938 208.531L176.469 198.219L169.375 198.5L167.031 208.125C166.969 208.417 166.885 208.615 166.781 208.719C166.677 208.823 166.49 208.885 166.219 208.906L159.75 209.125C159.333 209.125 159.125 208.927 159.125 208.531L172.844 161.25C172.99 160.792 173.271 160.552 173.688 160.531L180.563 160.281C181 160.302 181.24 160.552 181.281 161.031ZM175.375 173.906L171 191.844L176.188 191.656L175.375 173.906ZM231.834 160.938L226.459 208C226.375 208.479 226.105 208.74 225.646 208.781L219.459 209.125C219.105 209.125 218.896 208.927 218.834 208.531L212.271 175.156L209.959 208.125C209.938 208.625 209.667 208.885 209.146 208.906L202.709 209.125C202.25 209.125 202.021 208.927 202.021 208.531L207.428 161.25C207.511 160.813 207.782 160.573 208.24 160.531L214.584 160.188C214.875 160.188 215.063 160.25 215.146 160.375C215.25 160.479 215.334 160.667 215.396 160.938L221.74 192.469L223.928 161.25C223.948 160.792 224.23 160.552 224.771 160.531L230.99 160.188C231.553 160.188 231.834 160.438 231.834 160.938ZM312.866 187.625L303.147 188L301.679 200.813L313.647 200.406C314.189 200.427 314.46 200.698 314.46 201.219L313.647 207.688C313.606 208.125 313.335 208.396 312.835 208.5L293.616 209.125C293.158 209.125 292.929 208.927 292.929 208.531L298.335 161.25C298.418 160.813 298.689 160.573 299.147 160.531L316.272 159.938C316.793 160 317.054 160.281 317.054 160.781L316.272 167.25C316.21 167.771 315.939 168.052 315.46 168.094L305.397 168.375L304.054 180L313.679 179.656C314.22 179.677 314.491 179.948 314.491 180.469L313.679 186.844C313.595 187.323 313.325 187.583 312.866 187.625Z" fill="#969696"/>
<path d="M278.233 183.288L291.392 206.117C291.769 206.772 291.311 207.593 290.555 207.616L249.103 208.861C248.363 208.883 247.671 208.495 247.305 207.852L234.288 185.007C233.912 184.347 234.381 183.525 235.14 183.512L277.35 182.787C277.713 182.781 278.052 182.973 278.233 183.288Z" fill="#D9D9D9" fill-opacity="0.8" stroke="black"/>
<path d="M290.852 159.857L278.018 182.637C277.842 182.949 277.514 183.143 277.157 183.146L235.987 183.571C235.247 183.579 234.756 182.809 235.074 182.141L247.209 156.667C247.383 156.301 247.761 156.077 248.166 156.099L290.035 158.367C290.775 158.407 291.216 159.211 290.852 159.857Z" fill="#353535" stroke="black"/>
<path d="M273.622 187.041L278.484 186.91L277.848 184.639L272.418 184.928L273.622 187.041Z" fill="black"/>
<path d="M270.918 185.039L271.963 186.585L269.896 186.855L269.419 185.151L270.918 185.039Z" fill="black"/>
<path d="M267.351 185.421L268.191 187.329L266.328 187.236L265.852 185.533L267.351 185.421Z" fill="black"/>
<path d="M263.989 185.44L264.465 187.143L262.966 187.255L262.489 185.551L263.989 185.44Z" fill="black"/>
<path d="M260.83 185.095L261.671 187.004L259.808 186.911L259.126 185.57L260.83 185.095Z" fill="black"/>
<path d="M257.263 185.477L257.74 187.18L256.241 187.292L255.764 185.589L257.263 185.477Z" fill="black"/>
<path d="M253.901 185.496L254.741 187.404L252.878 187.311L252.038 185.403L253.901 185.496Z" fill="black"/>
<path d="M250.538 185.514L251.015 187.218L249.152 187.125L249.039 185.626L250.538 185.514Z" fill="black"/>
<path d="M247.176 185.533L247.653 187.236L246.153 187.348L245.108 185.803L247.176 185.533Z" fill="black"/>
<path d="M243.609 185.915L244.29 187.255L242.791 187.367L242.109 186.026L243.609 185.915Z" fill="black"/>
<path d="M240.451 185.57L241.132 186.911L239.633 187.022L239.315 185.887L240.451 185.57Z" fill="black"/>
<path d="M273.622 187.041L278.484 186.91L277.848 184.639L272.418 184.928L273.622 187.041Z" stroke="black"/>
<path d="M270.918 185.039L271.963 186.585L269.896 186.855L269.419 185.151L270.918 185.039Z" stroke="black"/>
<path d="M267.351 185.421L268.191 187.329L266.328 187.236L265.852 185.533L267.351 185.421Z" stroke="black"/>
<path d="M263.989 185.44L264.465 187.143L262.966 187.255L262.489 185.551L263.989 185.44Z" stroke="black"/>
<path d="M260.83 185.095L261.671 187.004L259.808 186.911L259.126 185.57L260.83 185.095Z" stroke="black"/>
<path d="M257.263 185.477L257.74 187.18L256.241 187.292L255.764 185.589L257.263 185.477Z" stroke="black"/>
<path d="M253.901 185.496L254.741 187.404L252.878 187.311L252.038 185.403L253.901 185.496Z" stroke="black"/>
<path d="M250.538 185.514L251.015 187.218L249.152 187.125L249.039 185.626L250.538 185.514Z" stroke="black"/>
<path d="M247.176 185.533L247.653 187.236L246.153 187.348L245.108 185.803L247.176 185.533Z" stroke="black"/>
<path d="M243.609 185.915L244.29 187.255L242.791 187.367L242.109 186.026L243.609 185.915Z" stroke="black"/>
<path d="M240.451 185.57L241.132 186.911L239.633 187.022L239.315 185.887L240.451 185.57Z" stroke="black"/>
<path d="M253.991 191.286L254.55 192.844L252.969 193.101L252.369 191.615L253.991 191.286Z" fill="black" stroke="black"/>
<path d="M274.279 200.324L277.368 205.89L264.645 206.374L261.556 200.808L274.279 200.324Z" fill="black" stroke="black"/>
<path d="M246.516 197.117L247.833 198.816L246.334 198.928L245.371 197.237L246.516 197.117Z" fill="black" stroke="black"/>
<path d="M251.082 197.299L251.278 198.652L250.06 199.114L248.733 197.219L251.082 197.299Z" fill="black" stroke="black"/>
<path d="M254.445 197.28L255.004 198.838L253.422 199.095L252.823 197.61L254.445 197.28Z" fill="black" stroke="black"/>
<path d="M258.83 197.359L259.866 198.708L256.058 198.667L255.74 197.532L258.83 197.359Z" fill="black" stroke="black"/>
<path d="M281.55 196.768L282.027 198.471L278.664 198.49L278.187 196.787L281.55 196.768Z" fill="black" stroke="black"/>
<path d="M276.688 196.898L277.165 198.602L261.851 198.583L260.806 197.038L276.688 196.898Z" fill="black" stroke="black"/>
<path d="M284.549 196.544L285.389 198.453L283.163 198.155L282.845 197.019L284.549 196.544Z" fill="black" stroke="black"/>
<path d="M282.618 194.022L283.299 195.362L277.506 195.446L276.461 193.901L282.618 194.022Z" fill="black" stroke="black"/>
<path d="M274.393 194.171L275.438 195.716L273.416 195.055L273.098 193.92L274.393 194.171Z" fill="black" stroke="black"/>
<path d="M271.031 194.19L271.917 195.167L270.417 195.279L269.531 194.301L271.031 194.19Z" fill="black" stroke="black"/>
<path d="M267.668 194.208L268.35 195.549L266.85 195.66L265.805 194.115L267.668 194.208Z" fill="black" stroke="black"/>
<path d="M264.306 194.227L264.987 195.567L263.124 195.474L262.806 194.339L264.306 194.227Z" fill="black" stroke="black"/>
<path d="M260.943 194.246L261.624 195.586L259.761 195.493L259.444 194.357L260.943 194.246Z" fill="black" stroke="black"/>
<path d="M256.74 194.269L257.776 195.618L256.194 195.875L255.595 194.389L256.74 194.269Z" fill="black" stroke="black"/>
<path d="M253.741 194.492L254.777 195.841L253.195 196.098L252.596 194.612L253.741 194.492Z" fill="black" stroke="black"/>
<path d="M250.287 194.46L251.332 196.005L243.312 195.791L243.199 194.292L250.287 194.46Z" fill="black" stroke="black"/>
<path d="M246.903 191.118L248.311 192.868L242.517 192.952L241.836 191.612L246.903 191.118Z" fill="black" stroke="black"/>
<path d="M250.992 191.509L251.551 193.067L249.81 192.756L249.37 191.839L250.992 191.509Z" fill="black" stroke="black"/>
<path d="M244.04 188.549L244.926 189.526L241.723 190.113L240.678 188.568L244.04 188.549Z" fill="black" stroke="black"/>
<path d="M279.461 187.939L280.496 189.288L277.984 189.498L277.666 188.362L279.461 187.939Z" fill="black" stroke="black"/>
<path d="M257.922 191.109L258.276 193.03L256.695 193.287L255.854 191.379L257.922 191.109Z" fill="black" stroke="black"/>
<path d="M261.08 191.453L261.761 192.793L259.694 193.063L259.421 190.997L261.08 191.453Z" fill="black" stroke="black"/>
<path d="M264.079 191.23L264.965 192.207L263.261 192.682L262.579 191.341L264.079 191.23Z" fill="black" stroke="black"/>
<path d="M267.805 191.416L268.486 192.756L266.987 192.868L266.51 191.164L267.805 191.416Z" fill="black" stroke="black"/>
<path d="M270.804 191.192L271.849 192.737L270.349 192.849L269.304 191.304L270.804 191.192Z" fill="black" stroke="black"/>
<path d="M274.371 190.811L274.848 192.514L273.712 192.831L273.03 191.49L274.371 190.811Z" fill="black" stroke="black"/>
<path d="M281.096 190.773L281.936 192.681L276.711 192.607L276.234 190.904L281.096 190.773Z" fill="black" stroke="black"/>
<path d="M248.698 188.782L249.278 189.874L247.721 189.666L247.28 188.748L248.698 188.782Z" fill="black" stroke="black"/>
<path d="M252.151 188.814L253.187 190.163L251.432 190.091L250.642 188.73L252.151 188.814Z" fill="black" stroke="black"/>
<path d="M255.627 188.381L256.186 189.94L254.809 189.833L254.005 188.711L255.627 188.381Z" fill="black" stroke="black"/>
<path d="M258.99 188.363L259.671 189.703L258.172 189.815L257.49 188.474L258.99 188.363Z" fill="black" stroke="black"/>
<path d="M262.352 188.344L262.911 189.902L261.33 190.159L260.73 188.674L262.352 188.344Z" fill="black" stroke="black"/>
<path d="M265.715 188.325L266.192 190.029L265.056 190.345L264.215 188.437L265.715 188.325Z" fill="black" stroke="black"/>
<path d="M269.077 188.307L270.122 189.852L268.055 190.122L268.146 188.26L269.077 188.307Z" fill="black" stroke="black"/>
<path d="M272.44 188.288L273.362 190.051L271.781 190.308L270.94 188.4L272.44 188.288Z" fill="black" stroke="black"/>
<path d="M276.007 187.906L276.484 189.61L274.984 189.721L274.508 188.018L276.007 187.906Z" fill="black" stroke="black"/>
</svg>
